<?xml version="1.0" encoding="UTF-8"?>
<!DOCTYPE svg
  PUBLIC '-//W3C//DTD SVG 1.1//EN'
  'http://www.w3.org/Graphics/SVG/1.1/DTD/svg11.dtd'>
<svg height="23.000mm" version="1.1" width="59.000mm" xmlns="http://www.w3.org/2000/svg">
    <!--Autogenerated with pyBarcode 0.8beta1-->
    <g id="barcode_group">
        <rect height="100%" style="fill:white" width="100%"/>
        <rect height="15.000mm" style="fill:black;" width="0.200mm" x="2.540mm" y="1.000mm"/>
        <rect height="15.000mm" style="fill:white;" width="0.600mm" x="2.740mm" y="1.000mm"/>
        <rect height="15.000mm" style="fill:black;" width="0.200mm" x="3.340mm" y="1.000mm"/>
        <rect height="15.000mm" style="fill:white;" width="0.200mm" x="3.540mm" y="1.000mm"/>
        <rect height="15.000mm" style="fill:black;" width="0.600mm" x="3.740mm" y="1.000mm"/>
        <rect height="15.000mm" style="fill:white;" width="0.200mm" x="4.340mm" y="1.000mm"/>
        <rect height="15.000mm" style="fill:black;" width="0.600mm" x="4.540mm" y="1.000mm"/>
        <rect height="15.000mm" style="fill:white;" width="0.200mm" x="5.140mm" y="1.000mm"/>
        <rect height="15.000mm" style="fill:black;" width="0.200mm" x="5.340mm" y="1.000mm"/>
        <rect height="15.000mm" style="fill:white;" width="0.200mm" x="5.540mm" y="1.000mm"/>
        <rect height="15.000mm" style="fill:black;" width="0.600mm" x="5.740mm" y="1.000mm"/>
        <rect height="15.000mm" style="fill:white;" width="0.200mm" x="6.340mm" y="1.000mm"/>
        <rect height="15.000mm" style="fill:black;" width="0.200mm" x="6.540mm" y="1.000mm"/>
        <rect height="15.000mm" style="fill:white;" width="0.200mm" x="6.740mm" y="1.000mm"/>
        <rect height="15.000mm" style="fill:black;" width="0.200mm" x="6.940mm" y="1.000mm"/>
        <rect height="15.000mm" style="fill:white;" width="0.600mm" x="7.140mm" y="1.000mm"/>
        <rect height="15.000mm" style="fill:black;" width="0.200mm" x="7.740mm" y="1.000mm"/>
        <rect height="15.000mm" style="fill:white;" width="0.200mm" x="7.940mm" y="1.000mm"/>
        <rect height="15.000mm" style="fill:black;" width="0.600mm" x="8.140mm" y="1.000mm"/>
        <rect height="15.000mm" style="fill:white;" width="0.200mm" x="8.740mm" y="1.000mm"/>
        <rect height="15.000mm" style="fill:black;" width="0.200mm" x="8.940mm" y="1.000mm"/>
        <rect height="15.000mm" style="fill:white;" width="0.200mm" x="9.140mm" y="1.000mm"/>
        <rect height="15.000mm" style="fill:black;" width="0.200mm" x="9.340mm" y="1.000mm"/>
        <rect height="15.000mm" style="fill:white;" width="0.600mm" x="9.540mm" y="1.000mm"/>
        <rect height="15.000mm" style="fill:black;" width="0.600mm" x="10.140mm" y="1.000mm"/>
        <rect height="15.000mm" style="fill:white;" width="0.200mm" x="10.740mm" y="1.000mm"/>
        <rect height="15.000mm" style="fill:black;" width="0.200mm" x="10.940mm" y="1.000mm"/>
        <rect height="15.000mm" style="fill:white;" width="0.200mm" x="11.140mm" y="1.000mm"/>
        <rect height="15.000mm" style="fill:black;" width="0.600mm" x="11.340mm" y="1.000mm"/>
        <rect height="15.000mm" style="fill:white;" width="0.200mm" x="11.940mm" y="1.000mm"/>
        <rect height="15.000mm" style="fill:black;" width="0.200mm" x="12.140mm" y="1.000mm"/>
        <rect height="15.000mm" style="fill:white;" width="0.600mm" x="12.340mm" y="1.000mm"/>
        <rect height="15.000mm" style="fill:black;" width="0.600mm" x="12.940mm" y="1.000mm"/>
        <rect height="15.000mm" style="fill:white;" width="0.200mm" x="13.540mm" y="1.000mm"/>
        <rect height="15.000mm" style="fill:black;" width="0.200mm" x="13.740mm" y="1.000mm"/>
        <rect height="15.000mm" style="fill:white;" width="0.200mm" x="13.940mm" y="1.000mm"/>
        <rect height="15.000mm" style="fill:black;" width="0.600mm" x="14.140mm" y="1.000mm"/>
        <rect height="15.000mm" style="fill:white;" width="0.200mm" x="14.740mm" y="1.000mm"/>
        <rect height="15.000mm" style="fill:black;" width="0.200mm" x="14.940mm" y="1.000mm"/>
        <rect height="15.000mm" style="fill:white;" width="0.200mm" x="15.140mm" y="1.000mm"/>
        <rect height="15.000mm" style="fill:black;" width="0.200mm" x="15.340mm" y="1.000mm"/>
        <rect height="15.000mm" style="fill:white;" width="0.200mm" x="15.540mm" y="1.000mm"/>
        <rect height="15.000mm" style="fill:black;" width="0.600mm" x="15.740mm" y="1.000mm"/>
        <rect height="15.000mm" style="fill:white;" width="0.200mm" x="16.340mm" y="1.000mm"/>
        <rect height="15.000mm" style="fill:black;" width="0.200mm" x="16.540mm" y="1.000mm"/>
        <rect height="15.000mm" style="fill:white;" width="0.200mm" x="16.740mm" y="1.000mm"/>
        <rect height="15.000mm" style="fill:black;" width="0.600mm" x="16.940mm" y="1.000mm"/>
        <rect height="15.000mm" style="fill:white;" width="0.600mm" x="17.540mm" y="1.000mm"/>
        <rect height="15.000mm" style="fill:black;" width="0.200mm" x="18.140mm" y="1.000mm"/>
        <rect height="15.000mm" style="fill:white;" width="0.200mm" x="18.340mm" y="1.000mm"/>
        <rect height="15.000mm" style="fill:black;" width="0.200mm" x="18.540mm" y="1.000mm"/>
        <rect height="15.000mm" style="fill:white;" width="0.200mm" x="18.740mm" y="1.000mm"/>
        <rect height="15.000mm" style="fill:black;" width="0.200mm" x="18.940mm" y="1.000mm"/>
        <rect height="15.000mm" style="fill:white;" width="0.200mm" x="19.140mm" y="1.000mm"/>
        <rect height="15.000mm" style="fill:black;" width="0.600mm" x="19.340mm" y="1.000mm"/>
        <rect height="15.000mm" style="fill:white;" width="0.200mm" x="19.940mm" y="1.000mm"/>
        <rect height="15.000mm" style="fill:black;" width="0.600mm" x="20.140mm" y="1.000mm"/>
        <rect height="15.000mm" style="fill:white;" width="0.600mm" x="20.740mm" y="1.000mm"/>
        <rect height="15.000mm" style="fill:black;" width="0.200mm" x="21.340mm" y="1.000mm"/>
        <rect height="15.000mm" style="fill:white;" width="0.200mm" x="21.540mm" y="1.000mm"/>
        <rect height="15.000mm" style="fill:black;" width="0.200mm" x="21.740mm" y="1.000mm"/>
        <rect height="15.000mm" style="fill:white;" width="0.200mm" x="21.940mm" y="1.000mm"/>
        <rect height="15.000mm" style="fill:black;" width="0.200mm" x="22.140mm" y="1.000mm"/>
        <rect height="15.000mm" style="fill:white;" width="0.200mm" x="22.340mm" y="1.000mm"/>
        <rect height="15.000mm" style="fill:black;" width="0.600mm" x="22.540mm" y="1.000mm"/>
        <rect height="15.000mm" style="fill:white;" width="0.600mm" x="23.140mm" y="1.000mm"/>
        <rect height="15.000mm" style="fill:black;" width="0.200mm" x="23.740mm" y="1.000mm"/>
        <rect height="15.000mm" style="fill:white;" width="0.200mm" x="23.940mm" y="1.000mm"/>
        <rect height="15.000mm" style="fill:black;" width="0.600mm" x="24.140mm" y="1.000mm"/>
        <rect height="15.000mm" style="fill:white;" width="0.200mm" x="24.740mm" y="1.000mm"/>
        <rect height="15.000mm" style="fill:black;" width="0.200mm" x="24.940mm" y="1.000mm"/>
        <rect height="15.000mm" style="fill:white;" width="0.600mm" x="25.140mm" y="1.000mm"/>
        <rect height="15.000mm" style="fill:black;" width="0.200mm" x="25.740mm" y="1.000mm"/>
        <rect height="15.000mm" style="fill:white;" width="0.200mm" x="25.940mm" y="1.000mm"/>
        <rect height="15.000mm" style="fill:black;" width="0.200mm" x="26.140mm" y="1.000mm"/>
        <rect height="15.000mm" style="fill:white;" width="0.200mm" x="26.340mm" y="1.000mm"/>
        <rect height="15.000mm" style="fill:black;" width="0.600mm" x="26.540mm" y="1.000mm"/>
        <rect height="15.000mm" style="fill:white;" width="0.200mm" x="27.140mm" y="1.000mm"/>
        <rect height="15.000mm" style="fill:black;" width="0.600mm" x="27.340mm" y="1.000mm"/>
        <rect height="15.000mm" style="fill:white;" width="0.200mm" x="27.940mm" y="1.000mm"/>
        <rect height="15.000mm" style="fill:black;" width="0.200mm" x="28.140mm" y="1.000mm"/>
        <rect height="15.000mm" style="fill:white;" width="0.200mm" x="28.340mm" y="1.000mm"/>
        <rect height="15.000mm" style="fill:black;" width="0.200mm" x="28.540mm" y="1.000mm"/>
        <rect height="15.000mm" style="fill:white;" width="0.600mm" x="28.740mm" y="1.000mm"/>
        <rect height="15.000mm" style="fill:black;" width="0.600mm" x="29.340mm" y="1.000mm"/>
        <rect height="15.000mm" style="fill:white;" width="0.200mm" x="29.940mm" y="1.000mm"/>
        <rect height="15.000mm" style="fill:black;" width="0.600mm" x="30.140mm" y="1.000mm"/>
        <rect height="15.000mm" style="fill:white;" width="0.200mm" x="30.740mm" y="1.000mm"/>
        <rect height="15.000mm" style="fill:black;" width="0.200mm" x="30.940mm" y="1.000mm"/>
        <rect height="15.000mm" style="fill:white;" width="0.200mm" x="31.140mm" y="1.000mm"/>
        <rect height="15.000mm" style="fill:black;" width="0.200mm" x="31.340mm" y="1.000mm"/>
        <rect height="15.000mm" style="fill:white;" width="0.200mm" x="31.540mm" y="1.000mm"/>
        <rect height="15.000mm" style="fill:black;" width="0.200mm" x="31.740mm" y="1.000mm"/>
        <rect height="15.000mm" style="fill:white;" width="0.600mm" x="31.940mm" y="1.000mm"/>
        <rect height="15.000mm" style="fill:black;" width="0.600mm" x="32.540mm" y="1.000mm"/>
        <rect height="15.000mm" style="fill:white;" width="0.200mm" x="33.140mm" y="1.000mm"/>
        <rect height="15.000mm" style="fill:black;" width="0.600mm" x="33.340mm" y="1.000mm"/>
        <rect height="15.000mm" style="fill:white;" width="0.200mm" x="33.940mm" y="1.000mm"/>
        <rect height="15.000mm" style="fill:black;" width="0.200mm" x="34.140mm" y="1.000mm"/>
        <rect height="15.000mm" style="fill:white;" width="0.200mm" x="34.340mm" y="1.000mm"/>
        <rect height="15.000mm" style="fill:black;" width="0.200mm" x="34.540mm" y="1.000mm"/>
        <rect height="15.000mm" style="fill:white;" width="0.200mm" x="34.740mm" y="1.000mm"/>
        <rect height="15.000mm" style="fill:black;" width="0.200mm" x="34.940mm" y="1.000mm"/>
        <rect height="15.000mm" style="fill:white;" width="0.600mm" x="35.140mm" y="1.000mm"/>
        <rect height="15.000mm" style="fill:black;" width="0.600mm" x="35.740mm" y="1.000mm"/>
        <rect height="15.000mm" style="fill:white;" width="0.200mm" x="36.340mm" y="1.000mm"/>
        <rect height="15.000mm" style="fill:black;" width="0.600mm" x="36.540mm" y="1.000mm"/>
        <rect height="15.000mm" style="fill:white;" width="0.200mm" x="37.140mm" y="1.000mm"/>
        <rect height="15.000mm" style="fill:black;" width="0.200mm" x="37.340mm" y="1.000mm"/>
        <rect height="15.000mm" style="fill:white;" width="0.200mm" x="37.540mm" y="1.000mm"/>
        <rect height="15.000mm" style="fill:black;" width="0.200mm" x="37.740mm" y="1.000mm"/>
        <rect height="15.000mm" style="fill:white;" width="0.200mm" x="37.940mm" y="1.000mm"/>
        <rect height="15.000mm" style="fill:black;" width="0.200mm" x="38.140mm" y="1.000mm"/>
        <rect height="15.000mm" style="fill:white;" width="0.600mm" x="38.340mm" y="1.000mm"/>
        <rect height="15.000mm" style="fill:black;" width="0.600mm" x="38.940mm" y="1.000mm"/>
        <rect height="15.000mm" style="fill:white;" width="0.200mm" x="39.540mm" y="1.000mm"/>
        <rect height="15.000mm" style="fill:black;" width="0.600mm" x="39.740mm" y="1.000mm"/>
        <rect height="15.000mm" style="fill:white;" width="0.200mm" x="40.340mm" y="1.000mm"/>
        <rect height="15.000mm" style="fill:black;" width="0.200mm" x="40.540mm" y="1.000mm"/>
        <rect height="15.000mm" style="fill:white;" width="0.200mm" x="40.740mm" y="1.000mm"/>
        <rect height="15.000mm" style="fill:black;" width="0.200mm" x="40.940mm" y="1.000mm"/>
        <rect height="15.000mm" style="fill:white;" width="0.200mm" x="41.140mm" y="1.000mm"/>
        <rect height="15.000mm" style="fill:black;" width="0.200mm" x="41.340mm" y="1.000mm"/>
        <rect height="15.000mm" style="fill:white;" width="0.600mm" x="41.540mm" y="1.000mm"/>
        <rect height="15.000mm" style="fill:black;" width="0.200mm" x="42.140mm" y="1.000mm"/>
        <rect height="15.000mm" style="fill:white;" width="0.200mm" x="42.340mm" y="1.000mm"/>
        <rect height="15.000mm" style="fill:black;" width="0.600mm" x="42.540mm" y="1.000mm"/>
        <rect height="15.000mm" style="fill:white;" width="0.200mm" x="43.140mm" y="1.000mm"/>
        <rect height="15.000mm" style="fill:black;" width="0.600mm" x="43.340mm" y="1.000mm"/>
        <rect height="15.000mm" style="fill:white;" width="0.200mm" x="43.940mm" y="1.000mm"/>
        <rect height="15.000mm" style="fill:black;" width="0.200mm" x="44.140mm" y="1.000mm"/>
        <rect height="15.000mm" style="fill:white;" width="0.600mm" x="44.340mm" y="1.000mm"/>
        <rect height="15.000mm" style="fill:black;" width="0.600mm" x="44.940mm" y="1.000mm"/>
        <rect height="15.000mm" style="fill:white;" width="0.200mm" x="45.540mm" y="1.000mm"/>
        <rect height="15.000mm" style="fill:black;" width="0.200mm" x="45.740mm" y="1.000mm"/>
        <rect height="15.000mm" style="fill:white;" width="0.200mm" x="45.940mm" y="1.000mm"/>
        <rect height="15.000mm" style="fill:black;" width="0.600mm" x="46.140mm" y="1.000mm"/>
        <rect height="15.000mm" style="fill:white;" width="0.200mm" x="46.740mm" y="1.000mm"/>
        <rect height="15.000mm" style="fill:black;" width="0.200mm" x="46.940mm" y="1.000mm"/>
        <rect height="15.000mm" style="fill:white;" width="0.200mm" x="47.140mm" y="1.000mm"/>
        <rect height="15.000mm" style="fill:black;" width="0.600mm" x="47.340mm" y="1.000mm"/>
        <rect height="15.000mm" style="fill:white;" width="0.200mm" x="47.940mm" y="1.000mm"/>
        <rect height="15.000mm" style="fill:black;" width="0.200mm" x="48.140mm" y="1.000mm"/>
        <rect height="15.000mm" style="fill:white;" width="0.200mm" x="48.340mm" y="1.000mm"/>
        <rect height="15.000mm" style="fill:black;" width="0.200mm" x="48.540mm" y="1.000mm"/>
        <rect height="15.000mm" style="fill:white;" width="0.600mm" x="48.740mm" y="1.000mm"/>
        <rect height="15.000mm" style="fill:black;" width="0.200mm" x="49.340mm" y="1.000mm"/>
        <rect height="15.000mm" style="fill:white;" width="0.200mm" x="49.540mm" y="1.000mm"/>
        <rect height="15.000mm" style="fill:black;" width="0.600mm" x="49.740mm" y="1.000mm"/>
        <rect height="15.000mm" style="fill:white;" width="0.200mm" x="50.340mm" y="1.000mm"/>
        <rect height="15.000mm" style="fill:black;" width="0.200mm" x="50.540mm" y="1.000mm"/>
        <rect height="15.000mm" style="fill:white;" width="0.600mm" x="50.740mm" y="1.000mm"/>
        <rect height="15.000mm" style="fill:black;" width="0.200mm" x="51.340mm" y="1.000mm"/>
        <rect height="15.000mm" style="fill:white;" width="0.200mm" x="51.540mm" y="1.000mm"/>
        <rect height="15.000mm" style="fill:black;" width="0.200mm" x="51.740mm" y="1.000mm"/>
        <rect height="15.000mm" style="fill:white;" width="0.600mm" x="51.940mm" y="1.000mm"/>
        <rect height="15.000mm" style="fill:black;" width="0.200mm" x="52.540mm" y="1.000mm"/>
        <rect height="15.000mm" style="fill:white;" width="0.600mm" x="52.740mm" y="1.000mm"/>
        <rect height="15.000mm" style="fill:black;" width="0.200mm" x="53.340mm" y="1.000mm"/>
        <rect height="15.000mm" style="fill:white;" width="0.200mm" x="53.540mm" y="1.000mm"/>
        <rect height="15.000mm" style="fill:black;" width="0.200mm" x="53.740mm" y="1.000mm"/>
        <rect height="15.000mm" style="fill:white;" width="0.600mm" x="53.940mm" y="1.000mm"/>
        <rect height="15.000mm" style="fill:black;" width="0.200mm" x="54.540mm" y="1.000mm"/>
        <rect height="15.000mm" style="fill:white;" width="0.200mm" x="54.740mm" y="1.000mm"/>
        <rect height="15.000mm" style="fill:black;" width="0.600mm" x="54.940mm" y="1.000mm"/>
        <rect height="15.000mm" style="fill:white;" width="0.200mm" x="55.540mm" y="1.000mm"/>
        <rect height="15.000mm" style="fill:black;" width="0.600mm" x="55.740mm" y="1.000mm"/>
        <rect height="15.000mm" style="fill:white;" width="0.200mm" x="56.340mm" y="1.000mm"/>
        <rect height="15.000mm" style="fill:black;" width="0.200mm" x="56.540mm" y="1.000mm"/>
        <text style="fill:black;font-size:10pt;text-anchor:middle;" x="29.640mm" y="21.000mm">A4 STD-00007 A+</text>
    </g>
</svg>
